<svg xmlns="http://www.w3.org/2000/svg" width="81" height="20" viewBox="0 0 81 20">
    <g fill="none" fill-rule="evenodd">
        <path fill="#FAFAFA" d="M-264-920h425V68h-425z"/>
        <g fill="#000" fill-opacity=".87" fill-rule="nonzero">
            <path d="M7.336 10.855H4.581l1.46-4.783 1.295 4.783zM3.17 16.12l.93-3.138h3.717l.88 3.138h3.436L8.714 4.13c-.2-.697-.631-1.029-1.361-1.029h-4.88v1.13h.415c.514 0 .78.198.78.58 0 .25-.05.465-.249 1.063L0 16.12h3.17zM16.382 16.12V4.095c0-.63-.365-.996-.979-.996h-3.005v1.13h.2c.514 0 .73.215.73.73v11.176h3.054v-.017zM21.55 16.12V4.097c0-.63-.365-.996-.979-.996h-3.005v1.13h.2c.514 0 .73.215.73.73v11.176h3.054v-.017zM26.749 4.511c0-.88-.647-1.41-1.759-1.41-1.096 0-1.76.53-1.76 1.41 0 .88.664 1.412 1.76 1.412 1.112 0 1.759-.532 1.759-1.412zm-.066 11.841V7.583c0-.63-.366-.996-.98-.996h-2.971V7.7h.183c.515 0 .73.232.73.747v7.905h3.038zM33.193 11.434v1.893c-.515.532-1.129.847-1.66.847-.547 0-.747-.265-.747-.996 0-.73.15-1.063.697-1.279a8.342 8.342 0 0 1 1.71-.465zm-4.116-2.29c1.012-.483 2.124-.765 3.004-.765.813 0 1.112.3 1.112 1.145v.216c-1.245.2-1.643.266-2.34.432-.415.1-.78.216-1.145.366-1.229.481-1.81 1.444-1.81 2.906 0 1.86.797 2.756 2.457 2.756.597 0 1.145-.116 1.643-.315.431-.199.68-.349 1.311-.847v.166c0 .598.315.913.913.913h2.788v-1.062h-.132c-.532 0-.731-.233-.731-.864v-4.65c0-1.827-1.477-3.338-3.319-3.338-.813 0-1.594.1-2.374.266-.763.183-1.145.332-2.074.78l.697 1.894zM41.149 16.068V9.475c.515-.565 1.029-.814 1.644-.814.647 0 .796.25.796 1.23v6.193h3.054V9.441c0-1.544-.116-2.026-.597-2.557-.415-.448-1.029-.68-1.843-.68-1.195 0-2.025.364-3.17 1.427V7.25c0-.597-.315-.913-.946-.913h-2.888V7.45h.183c.514 0 .73.232.73.747v7.905h3.037v-.033zM56.232 13.925h-4.249L56.05 8.23V6.203h-6.374a1.06 1.06 0 0 0-1.062 1.063v1.777h1.129V8.86c0-.448.232-.664.73-.664h2.191l-4.1 5.763v2.01h7.668v-2.044zM72.404 15.616V4.572c0-.88-.316-1.179-1.179-1.179h-2.572v1.23h.149c.581 0 .697.132.697.846v10.147h2.905zm1.278 0h2.854V7.013c0-.863-.331-1.179-1.178-1.179h-1.693v9.782h.017zm-5.444 0V5.851h-1.693c-.847 0-1.178.315-1.178 1.18v8.585h2.871zm11.02-5.613c0 4.865-3.502 8.403-8.298 8.403-4.797 0-8.299-3.538-8.299-8.403 0-4.866 3.502-8.403 8.299-8.403 4.796 0 8.298 3.57 8.298 8.403zm1.693 0c0-6.377-5.294-10.96-11.999-9.832-3.635.615-7.22 4.185-7.818 7.822C60.006 14.703 64.586 20 70.96 20c5.726.017 9.991-4.268 9.991-9.997z"/>
        </g>
    </g>
</svg>
