<svg width="36px" height="51px" viewBox="0 0 282 400" version="1.1" xmlns="http://www.w3.org/2000/svg" xmlns:xlink="http://www.w3.org/1999/xlink">
    <title>mdpi/autobild-logo</title>
    <desc>Created with Sketch.</desc>
    <g id="Page-1" stroke="none" stroke-width="1" fill="none" fill-rule="evenodd">
        <g id="Artboard" fill-rule="nonzero">
            <g id="autobild-logo">
                <polygon id="path180" fill="#606164" points="0.0052086119 0 281.966935 0 281.966935 400 0.0052086119 400"></polygon>
                <path d="M203.88038,349.824576 L211.542055,349.824576 L208.314931,323.520285 L200.653256,323.520285 L185.258558,197.951097 L157.454799,197.951097 L172.849498,323.520285 L165.187822,323.520285 L168.409458,349.824576 L176.071133,349.824576 L179.74281,379.750791 L207.546568,379.750791 L203.88038,349.824576 Z M145.523222,207.877037 C144.84816,202.391939 139.864778,197.951097 134.387449,197.951097 L94.0209578,197.951097 C88.5491166,197.951097 84.6579076,202.391939 85.327481,207.877037 L102.730899,349.824576 L127.461207,349.824576 L112.06102,224.255388 L123.317535,224.255388 L138.712234,349.824576 L162.921152,349.824576 L145.523222,207.877037 L145.523222,207.877037 Z M267.22092,349.824576 C272.692761,349.824576 276.589458,345.378239 275.919885,339.89314 L259.729382,207.877037 C259.054321,202.391939 254.076427,197.951097 248.599098,197.951097 L207.716706,197.951097 C202.244865,197.951097 198.348167,202.391939 199.023229,207.877037 L215.208244,339.89314 C215.883305,345.378239 220.866687,349.824576 226.338528,349.824576 L267.22092,349.824576 Z M237.523696,224.255388 L249.691271,323.520285 L238.440243,323.520285 L226.26718,224.255388 L237.523696,224.255388 Z M225.32868,54.0634378 L235.246049,54.0634378 L235.246049,120.335302 L225.32868,120.335302 L225.32868,54.0634378 Z M194.133148,34.0686592 L194.133148,140.335576 C194.133148,145.815179 198.573188,150.261517 204.045029,150.261517 L235.246049,150.261517 L235.246049,185.700311 L265.129875,185.700311 L265.129875,24.137223 L235.246049,24.137223 L204.045029,24.137223 C198.573188,24.137223 194.133148,28.5835605 194.133148,34.0686592 L194.133148,34.0686592 Z M151.939051,185.700311 L181.828366,185.700311 L181.828366,24.137223 L151.939051,24.137223 L151.939051,185.700311 Z M56.5413158,185.700311 L87.5282917,185.700311 C93.0001328,185.700311 97.4401724,181.259469 97.4401724,175.77437 L97.4401724,114.850203 C97.4401724,109.365104 93.0001328,104.918767 87.5282917,104.918767 C93.0001328,104.918767 97.4401724,100.472429 97.4401724,94.9873305 L97.4401724,34.0686592 C97.4401724,28.5835605 93.0001328,24.137223 87.5282917,24.137223 L56.5413158,24.137223 L26.6574893,24.137223 L26.6574893,104.918767 L26.6574893,185.700311 L56.5413158,185.700311 L56.5413158,185.700311 Z M67.556346,156.472099 L56.5468041,156.472099 L56.5468041,119.879126 L67.556346,119.879126 L67.556346,156.472099 Z M67.556346,89.9529113 L56.5468041,89.9529113 L56.5468041,53.3709304 L67.556346,53.3709304 L67.556346,89.9529113 Z M109.744955,149.860302 L139.628781,149.860302 L139.628781,24.137223 L109.744955,24.137223 L109.744955,149.860302 Z M109.744955,185.700311 L139.628781,185.700311 L139.628781,155.774096 L109.744955,155.774096 L109.744955,185.700311 Z M68.0173637,349.841065 L48.4789942,289.625893 L60.5368026,289.625893 L68.0173637,349.841065 Z M39.527567,259.699678 L21.0703938,197.951097 L0.000786836815,197.951097 L0.000786836815,215.719959 L49.0388014,379.750791 L70.1907329,379.750791 L75.4156003,379.750791 L96.0626076,379.750791 L73.4782282,197.951097 L47.6118418,197.951097 L55.2790054,259.699678 L39.527567,259.699678 L39.527567,259.699678 Z" id="path192" fill="#606164" transform="translate(137.997766, 201.944007) scale(-1, 1) rotate(-180.000000) translate(-137.997766, -201.944007) "></path>
                <path d="M199.774578,346.227935 L207.436253,346.227935 L204.214618,319.923644 L196.552943,319.923644 L181.152756,194.348959 L153.348997,194.348959 L168.743696,319.923644 L161.082021,319.923644 L164.309144,346.227935 L171.97082,346.227935 L175.637008,376.154149 L203.446255,376.154149 L199.774578,346.227935 Z M141.41742,204.280395 C140.742358,198.800793 135.758976,194.348959 130.287135,194.348959 L89.9206443,194.348959 C84.4433149,194.348959 80.5521059,198.800793 81.2216792,204.280395 L98.6250977,346.227935 L123.355405,346.227935 L107.955218,220.658746 L119.206245,220.658746 L134.606432,346.227935 L158.820838,346.227935 L141.41742,204.280395 Z M263.115118,346.227935 C268.586959,346.227935 272.483657,341.781597 271.808595,336.301994 L255.623581,204.280395 C254.954007,198.800793 249.970625,194.348959 244.493296,194.348959 L203.616392,194.348959 C198.139063,194.348959 194.247854,198.800793 194.917427,204.280395 L211.10793,336.301994 C211.777504,341.781597 216.760885,346.227935 222.232727,346.227935 L263.115118,346.227935 Z M233.417894,220.658746 L245.590957,319.923644 L234.33993,319.923644 L222.166867,220.658746 L233.417894,220.658746 Z M221.228367,50.4722921 L231.140247,50.4722921 L231.140247,116.73866 L221.228367,116.73866 L221.228367,50.4722921 Z M190.027347,30.4665213 L190.027347,136.738935 C190.027347,142.218537 194.467386,146.664875 199.939227,146.664875 L231.140247,146.664875 L231.140247,182.109165 L261.024074,182.109165 L261.024074,20.5405811 L231.140247,20.5405811 L199.939227,20.5405811 C194.467386,20.5405811 190.027347,24.9869187 190.027347,30.4665213 L190.027347,30.4665213 Z M147.83325,182.109165 L177.717076,182.109165 L177.717076,20.5405811 L147.83325,20.5405811 L147.83325,182.109165 Z M52.435514,182.109165 L83.4224899,182.109165 C88.8943311,182.109165 93.3288824,177.657331 93.3288824,172.177729 L93.3288824,111.253561 C93.3288824,105.773959 88.8943311,101.322125 83.4224899,101.322125 C88.8943311,101.322125 93.3288824,96.8757874 93.3288824,91.3906887 L93.3288824,30.4665213 C93.3288824,24.9869187 88.8943311,20.5405811 83.4224899,20.5405811 L52.435514,20.5405811 L22.5516876,20.5405811 L22.5516876,101.322125 L22.5516876,182.109165 L52.435514,182.109165 L52.435514,182.109165 Z M63.4505442,152.875457 L52.4410023,152.875457 L52.4410023,116.282484 L63.4505442,116.282484 L63.4505442,152.875457 Z M63.4505442,86.3562694 L52.4410023,86.3562694 L52.4410023,49.7742885 L63.4505442,49.7742885 L63.4505442,86.3562694 Z M105.644641,146.26366 L135.528468,146.26366 L135.528468,20.5405811 L105.644641,20.5405811 L105.644641,146.26366 Z M105.644641,182.109165 L135.528468,182.109165 L135.528468,152.18295 L105.644641,152.18295 L105.644641,182.109165 Z M63.9115619,346.244423 L44.3731924,286.029251 L56.4310008,286.029251 L63.9115619,346.244423 Z M35.4272536,256.103036 L16.964592,194.348959 L0.00023800621,194.348959 L0.00023800621,225.858048 L44.9329996,376.154149 L66.0849311,376.154149 L71.3152868,376.154149 L91.9568059,376.154149 L69.3724265,194.348959 L43.5060401,194.348959 L51.1732036,256.103036 L35.4272536,256.103036 L35.4272536,256.103036 Z" id="path196" fill="#FFFFFF" transform="translate(135.942422, 198.347365) scale(-1, 1) rotate(-180.000000) translate(-135.942422, -198.347365) "></path>
            </g>
        </g>
    </g>
</svg>
