<svg width="72px" height="37px" viewBox="0 0 1478 400" version="1.1" xmlns="http://www.w3.org/2000/svg" xmlns:xlink="http://www.w3.org/1999/xlink">
    <title>mdpi/autohaus-logo</title>
    <desc>Created with Sketch.</desc>
    <g id="Page-1" stroke="none" stroke-width="1" fill="none" fill-rule="evenodd">
        <g id="Artboard" transform="translate(-3821.000000, 0.000000)">
            <g id="autohaus-logo" transform="translate(3821.000000, 0.000000)">
                <rect id="Rectangle" stroke="#606164" fill="#606164" x="0.5" y="0.5" width="1477" height="399"></rect>
                <g id="Group" transform="translate(37.042607, 37.037037)" fill="#FFFFFF" fill-rule="nonzero">
                    <path d="M59.2681704,8.51851852 L0,310.37037 L25.9298246,310.37037 L40.7468672,227.407407 L87.7909774,227.407407 L102.237594,310.37037 L155.578947,310.37037 L100.385464,8.51851852 L59.2681704,8.51851852 Z M64.8245614,90.3703704 L84.0867168,208.518519 L44.8215539,208.518519 L64.8245614,90.3703704 Z" id="Fill-1"></path>
                    <polygon id="Fill-2" points="393.392481 310 393.392481 29.6296296 345.977945 29.6296296 345.977945 8.51851852 484.146867 8.51851852 484.146867 29.6296296 436.361905 29.6296296 436.361905 310"></polygon>
                    <path d="M604.164912,221.481481 L601.201504,290 C599.719799,304.074074 588.977444,309.62963 582.309774,309.62963 C575.642105,309.62963 564.899749,304.074074 563.418045,290 L560.454637,221.481481 L560.084211,162.962963 L561.936341,60.3703704 C561.936341,51.8518519 563.047619,43.3333333 563.418045,35.5555556 C564.899749,21.8518519 575.642105,15.9259259 582.309774,15.9259259 C588.977444,15.9259259 599.719799,21.8518519 601.201504,35.5555556 C601.57193,43.7037037 602.683208,51.8518519 602.683208,60.3703704 L604.535338,162.962963 L604.164912,221.481481 Z M649.727318,50.7407407 C640.837093,19.2592593 614.907268,-8.52651283e-14 582.309774,-8.52651283e-14 C549.341855,-8.52651283e-14 523.782456,19.2592593 514.892231,50.7407407 C507.854135,75.9259259 504.890727,106.666667 504.890727,162.592593 C504.890727,247.777778 511.558396,282.222222 530.820551,303.333333 C543.415038,317.037037 562.306767,324.814815 582.309774,324.814815 C602.312782,324.814815 621.204511,316.666667 633.798997,303.333333 C653.061153,282.222222 659.728822,248.148148 659.728822,162.592593 C659.728822,106.666667 656.765414,76.2962963 649.727318,50.7407407 L649.727318,50.7407407 Z" id="Fill-3"></path>
                    <polygon id="Fill-6" points="702.698246 318.888889 702.698246 6.2962963 755.298747 6.2962963 755.298747 147.407407 798.26817 147.407407 798.26817 6.2962963 850.498246 6.2962963 850.498246 318.888889 798.26817 318.888889 798.26817 168.148148 791.230075 168.148148 755.298747 168.148148 755.298747 318.888889"></polygon>
                    <path d="M929.769424,213.703704 L949.402005,91.4814815 L968.293734,213.703704 L929.769424,213.703704 Z M911.618546,318.888889 L926.065163,232.962963 L971.997995,232.962963 L986.074185,318.888889 L1037.93383,318.888889 L983.851629,6.2962963 L943.845614,6.2962963 L886.059148,318.888889 L911.618546,318.888889 Z" id="Fill-8"></path>
                    <path d="M325.604511,6.2962963 L325.604511,243.333333 C325.604511,269.62963 323.752381,281.851852 317.084712,294.074074 C307.82406,313.703704 285.22807,325.185185 256.705263,325.185185 C238.554386,325.185185 222.255639,320.37037 209.661153,311.481481 C202.623058,306.666667 197.066667,300.740741 192.621554,293.333333 C185.583459,280.740741 183.731328,268.148148 183.731328,238.148148 L183.731328,6.66666667 L235.961404,6.66666667 L235.961404,260.740741 C235.961404,286.666667 248.185464,298.518519 267.447619,298.518519 C288.561905,298.518519 300.045113,284.814815 300.045113,255.925926 L300.045113,6.66666667 L325.604511,6.66666667 L325.604511,6.2962963 Z" id="Fill-10"></path>
                    <path d="M1216.4792,6.2962963 L1216.4792,243.333333 C1216.4792,269.62963 1214.62707,281.851852 1207.9594,294.074074 C1198.69875,313.703704 1176.10276,325.185185 1147.57995,325.185185 C1129.42907,325.185185 1113.13033,320.37037 1100.53584,311.481481 C1093.49774,306.666667 1087.94135,300.740741 1083.49624,293.333333 C1076.45815,280.740741 1074.60602,268.148148 1074.60602,238.148148 L1074.60602,6.66666667 L1126.83609,6.66666667 L1126.83609,260.740741 C1126.83609,286.666667 1139.06015,298.518519 1158.32231,298.518519 C1179.43659,298.518519 1190.9198,284.814815 1190.9198,255.925926 L1190.9198,6.66666667" id="Fill-13"></path>
                    <path d="M1386.50476,180.740741 C1376.13283,164.074074 1356.12982,149.62963 1338.34937,130 C1317.97594,108.518519 1318.34637,104.814815 1314.27168,94.8148148 C1311.30827,87.7777778 1309.45614,80 1308.71529,69.2592593 C1308.71529,68.5185185 1308.71529,68.1481481 1308.71529,67.4074074 C1308.71529,31.4814815 1313.53083,15.9259259 1329.08872,15.9259259 C1344.64662,15.9259259 1348.35088,30.3703704 1348.7213,90 L1394.65414,90 C1394.28371,60.7407407 1390.57945,42.5925926 1381.68922,28.1481481 C1370.57644,10.7407407 1355.01855,0.37037037 1329.82957,0.37037037 C1286.1193,0.37037037 1261.30075,21.8518519 1257.96692,67.037037 C1257.96692,67.7777778 1257.59649,74.4444444 1257.59649,75.9259259 C1257.59649,99.2592593 1263.15288,120 1273.52481,136.296296 C1284.63759,153.333333 1330.94085,197.777778 1330.94085,197.777778 C1336.49724,204.444444 1340.94236,210.740741 1344.27619,217.407407 C1349.09173,228.148148 1350.94386,239.62963 1350.94386,258.148148 C1350.94386,294.074074 1342.42406,309.62963 1326.86617,309.62963 C1311.30827,309.62963 1303.52932,295.185185 1303.52932,233.703704 L1303.52932,224.814815 L1257.59649,224.814815 L1257.59649,232.222222 C1257.59649,263.703704 1261.30075,282.222222 1270.5614,297.407407 C1281.67419,314.814815 1302.41805,325.185185 1327.97744,325.185185 C1374.2807,325.185185 1402.06266,294.074074 1402.06266,243.333333 C1402.06266,219.259259 1396.50627,197.407407 1386.50476,180.740741" id="Fill-16"></path>
                </g>
            </g>
        </g>
    </g>
</svg>
