<svg width="72px" height="17px" viewBox="0 0 1671 400" version="1.1" xmlns="http://www.w3.org/2000/svg" xmlns:xlink="http://www.w3.org/1999/xlink">
    <g id="Page-1" stroke="none" stroke-width="1" fill="none" fill-rule="evenodd">
        <g id="Artboard" transform="translate(-5546.000000, 0.000000)" fill="#606164">
            <g id="dmax-logo" transform="translate(5546.000000, 0.000000)">
                <path d="M166.186081,400 C313.151963,400 366.176832,323.549369 366.176832,193.4515 C368.771559,88.0881974 295.492261,-1.65182882 180.271742,0.0230742687 L-1.13686838e-13,0.0230742687 L-1.13686838e-13,400 L166.186081,400 Z M394.343577,400 L842.206256,400 L842.206256,0.0230742687 L687.465346,0.0779891242 L617.220094,217.687256 L549.26296,0.0184980308 L394.343577,0.0184980308 L394.343577,400 Z M853.166346,399.885594 L1256.26884,400 L1108.98262,0.325105974 L1002.92831,0.0871416001 L853.166346,399.885594 Z M1532.30752,191.561514 C1665.30214,-9.50922939 1516.67509,214.593719 1659.06015,0.0230742687 L1281.61662,0.0230742687 C1425.10457,215.838456 1271.48483,-14.8908852 1408.36926,191.561514 C1261.93423,412.099573 1436.17906,149.327414 1270.34993,400 L1670.32685,400 C1523.87351,179.60838 1687.94079,426.50557 1532.30752,191.561514 L1532.30752,191.561514 Z" id="Fill-1"></path>
            </g>
        </g>
    </g>
</svg>
