<svg width="48px" height="46px" viewBox="0 0 423 400" version="1.1" xmlns="http://www.w3.org/2000/svg" xmlns:xlink="http://www.w3.org/1999/xlink">
    <g id="Page-1" stroke="none" stroke-width="1" fill="none" fill-rule="evenodd">
        <g id="Artboard" transform="translate(-370.000000, 0.000000)">
            <g id="rtl-logo" transform="translate(370.000000, 0.000000)">
                <path d="M210.372472,0.934210526 C128.071702,0.934210526 61.348323,67.6 61.348323,149.847368 C61.348323,232.092105 128.071702,298.757895 210.372472,298.757895 C292.667975,298.757895 359.396621,232.092105 359.396621,149.847368 C359.396621,67.6 292.667975,0.934210526 210.372472,0.934210526" id="Fill-1" fill="#606164"></path>
                <path d="M100.854062,334.639474 C120.639851,334.639474 119.884025,355.457895 119.884025,355.457895 C119.884025,377.076316 96.4639503,377.978947 96.4639503,377.978947 L124.61913,400 L83.3252174,400 L60.7952795,375.807895 L47.7013168,375.807895 L47.6512795,400 L0,400 L0,334.639474 C0,334.639474 81.0498385,334.618421 100.854062,334.618421 C100.854062,334.618421 81.0498385,334.639474 100.854062,334.639474 M47.6512795,347.671053 L47.6512795,363.060526 L67.3606957,363.05 C67.3606957,363.05 75.3824596,362.402632 75.3824596,354.971053 C75.3824596,347.539474 68.853913,347.671053 68.4562484,347.671053 L47.6512795,347.671053" id="Fill-2" fill="#606164"></path>
                <polyline id="Fill-3" fill="#606164" points="153.725019 334.634211 269.508621 334.634211 269.519155 347.378947 235.435876 347.378947 235.435876 399.992105 187.789863 399.992105 187.779329 347.378947 153.717118 347.378947 153.725019 334.634211"></polyline>
                <polyline id="Fill-4" fill="#606164" points="315.88 399.997368 422.699031 399.997368 422.699031 387.234211 363.536547 387.244737 363.536547 334.636842 315.88 334.636842 315.88 399.997368"></polyline>
                <polygon id="Fill-5" fill="#FFFFFE" points="148.763429 211.557895 196.364671 211.557895 196.364671 87.3631579 148.763429 87.3631579"></polygon>
                <polygon id="Fill-6" fill="#FFFFFE" points="225.383652 211.557895 272.995429 211.557895 272.995429 87.3631579 225.383652 87.3631579"></polygon>
            </g>
        </g>
    </g>
</svg>
