<svg width="72px" height="32px" viewBox="0 0 832 400" version="1.1" xmlns="http://www.w3.org/2000/svg" xmlns:xlink="http://www.w3.org/1999/xlink">
    <g id="Page-1" stroke="none" stroke-width="1" fill="none" fill-rule="evenodd">
        <g id="Artboard" transform="translate(-2741.000000, 0.000000)" fill="#606164" fill-rule="nonzero">
            <g id="servus-logo" transform="translate(2741.000000, 0.000000)">
                <path d="M697.511768,297.516874 C693.688963,299.865273 708.53909,310.139518 699.717233,306.470145 C689.866158,302.360447 660.754027,299.571723 656.931222,298.984623 C653.696541,298.544299 644.580622,296.929775 648.256396,296.1959 C643.404374,296.783 632.818145,294.287826 626.642844,296.48945 C616.79177,295.462025 603.706014,292.526527 594.443063,294.141051 C576.358255,292.820077 536.512864,292.673302 534.601462,293.260401 C533.131152,293.700726 515.340405,290.031353 505.048238,293.407176 C503.87199,293.847501 502.107619,295.168475 500.78434,295.462025 C498.284814,295.755575 495.785287,294.434601 493.285761,294.728151 C491.374359,294.874926 489.609987,296.48945 487.845615,296.636225 C483.287656,297.370099 479.023758,293.260401 474.465798,293.553951 C472.701426,293.700726 471.67221,288.270054 469.466745,295.462025 C468.878621,297.516874 465.349878,295.168475 463.144414,295.31525 C461.08598,295.462025 458.586454,296.929775 456.380989,297.223324 C443.589296,299.278173 429.621354,300.452373 417.564815,301.773347 C415.21232,302.066897 412.859824,305.295945 410.507329,305.44272 C408.595927,305.589495 406.831555,304.268521 404.626091,304.268521 C400.803286,304.121746 396.686419,306.910469 392.422521,307.204019 C391.099242,307.204019 389.481901,306.470145 388.305654,306.61692 C387.129406,306.763694 385.806127,308.084669 384.482849,308.084669 C382.277384,308.084669 365.221793,308.378219 360.957895,309.112093 C354.341501,310.139518 347.136984,310.286293 341.255746,311.313717 C338.462157,311.754042 335.8156,313.368566 333.316074,313.808891 C318.907039,315.27664 304.645036,317.625039 290.530064,320.707312 C284.648825,322.028287 279.061648,324.376685 273.327441,325.550885 C259.359499,328.486383 246.567806,329.954132 233.040957,333.476731 C223.483945,335.971904 213.926932,338.173528 205.252105,340.228377 C201.870393,340.962252 198.635712,343.017101 195.548062,343.163876 C194.077752,343.163876 192.460412,342.283226 190.990102,342.576776 C188.784637,342.870326 187.167297,344.925175 185.108863,345.659049 C183.344492,346.246149 181.433089,345.659049 179.227625,346.099374 C169.523581,348.007448 158.202197,352.117146 146.880813,354.759095 C141.587698,356.080069 136.441615,357.694593 131.295531,359.602667 C125.708354,361.510741 120.121178,364.299465 115.710249,364.44624 C111.593382,364.44624 107.623546,365.473664 103.947772,367.381738 C101.448246,367.968838 104.094803,365.326889 102.330431,365.767214 C84.5396849,370.170462 68.9544029,377.068883 52.928028,384.11408 C37.3427459,390.865726 2.79046973,403.19482 1.90828396,399.231897 C1.02609818,395.268974 10.5831107,392.7738 14.6999777,390.131851 C19.2579375,387.196353 23.3748045,386.609253 27.9327643,384.554404 C37.9308698,380.297932 48.2230372,376.775333 58.6622355,374.28016 C79.0995393,368.996262 99.6838741,359.015567 120.121178,351.089722 C140.117389,343.310651 161.436878,338.173528 182.609337,331.862207 C203.781796,325.550885 224.954254,319.826663 246.273744,314.68954 C290.088971,304.121746 335.227476,296.783 381.101137,287.829729 C403.596874,283.426481 425.94558,279.903883 448.735379,277.11516 C497.402628,271.097388 546.658,270.657063 595.47228,275.647411 C623.702225,277.40871 654.137634,282.545832 678.691805,287.095855 C692.806777,289.884578 706.774719,293.553951 720.301567,298.397524 C728.829363,301.479797 701.334573,295.90235 697.658799,298.103974" id="Path"></path>
                <path d="M101.007655,143.489904 C101.448607,143.342401 101.742574,143.342401 102.183526,143.047394 C101.742574,143.194897 101.301623,143.342401 101.007655,143.489904 C98.5089291,144.079917 96.1571871,144.817433 93.805445,145.702452 C86.3092673,148.505013 78.2251541,152.04509 71.7578635,157.0602 C63.2327986,163.697845 55.589637,171.515515 48.9753625,180.070702 C43.2429913,187.593366 38.5395072,195.706043 34.8649103,204.26123 C27.5157164,220.929093 27.9566681,239.809505 35.7468136,256.182362 C43.3899752,272.407716 56.1775725,285.535503 72.1988151,293.500676 C82.9286381,298.663289 94.8343322,302.498373 107.033994,301.760857 C110.120655,301.613353 112.766365,302.203366 116.293978,301.318347 C112.472397,298.368283 108.062881,296.598244 104.094316,294.533199 C97.0390903,290.698115 92.4825901,285.092993 88.0730738,278.750355 C82.3407026,271.080187 78.0781702,262.525001 75.4324604,253.379801 C73.0807184,245.267124 72.0518312,236.711938 72.6397667,228.304254 C73.2277022,217.831526 75.7264282,207.653804 79.9889606,198.066094 C87.92609,180.365708 99.0968646,166.205399 116.440962,157.797716 C118.204769,156.912697 120.115559,156.322684 122.173333,155.585168 C122.026349,155.290161 121.879366,154.995155 121.732382,154.552645 C121.732382,154.552645 116.881914,145.997459 112.472397,144.079917 C109.238752,142.457381 105.711139,142.162375 102.33051,143.194897" id="Path"></path>
                <path d="M271.802921,2.50282163 C277.395055,3.97506965 282.692866,6.18344168 286.519063,10.0112865 C291.816873,15.1641546 291.081066,22.5253947 289.315129,28.7088364 C284.900287,44.4618902 273.568858,54.4731767 259.735685,61.9816416 C249.728709,67.2817344 239.133087,71.6984785 228.390304,75.0846489 C220.73791,77.7346954 212.496871,76.9985714 204.402993,76.7041218 C203.667186,76.7041218 202.637056,76.7041218 202.784217,75.820773 C202.931379,71.2568041 198.810859,71.2568041 196.456277,69.4901065 C195.426147,68.7539825 193.071564,68.7539825 193.954533,66.84006 C194.837501,64.9261376 194.984662,62.2760912 197.633568,62.2760912 C205.727446,62.1288664 213.821324,60.6566184 221.473717,58.0065719 C233.099469,54.3259519 243.989414,48.5841846 253.554906,41.0757197 C255.615165,39.3090221 257.675425,37.8367741 260.030008,36.5117509 C262.090268,35.4811772 264.003366,35.0395028 263.856205,32.2422316 C263.709043,28.7088364 263.267559,25.3226659 260.030008,23.2615187 C258.116909,22.2309451 256.05665,21.6420459 253.99639,21.4948211 C244.872382,20.9059219 235.895536,21.3475963 226.91869,22.9670691 C221.473717,23.8504179 216.323068,26.3532395 211.31958,28.5616116 C205.433123,31.0644332 199.105182,33.2728052 193.807371,36.8062005 C186.743623,41.5173941 178.944068,44.9035646 172.616127,51.234231 C166.876832,56.9759983 165.405218,64.9261376 159.960246,70.6679049 C158.34147,72.4346025 159.224439,75.5263233 159.813084,77.7346954 C161.284698,82.7403386 162.46199,88.0404315 163.933604,93.0460748 C166.288187,101.437888 172.763289,106.885206 178.502584,112.774198 C183.947556,118.368741 191.158466,121.607686 197.192084,126.31888 C203.814347,131.471748 211.025257,136.182942 217.941843,140.894135 C223.386816,144.427531 229.714756,146.783127 233.982437,151.788771 C241.48767,160.622259 250.611677,168.130724 257.233941,177.994785 C263.120398,187.122723 266.799433,197.428459 267.829563,208.17587 C269.006854,217.745482 269.5955,227.462319 266.50511,237.179156 C263.41472,246.748768 258.558394,255.729481 252.230453,263.385171 C241.781992,276.193728 228.978949,286.793914 214.262808,294.449604 C200.723958,301.663619 186.302139,306.669262 171.733159,311.233231 C156.869856,315.7972 141.417907,318.741696 125.818797,319.919494 C112.427109,320.950068 98.8882586,320.213944 85.6437312,317.711122 C74.3123023,315.649975 63.2751962,312.852704 52.3852515,309.172084 C39.1407241,304.46089 27.3678109,297.688549 18.9796103,285.616116 C14.1232836,278.69655 8.82547266,272.071434 5.58792154,264.121295 C2.93901607,257.790628 2.20320899,251.018287 1.02591767,244.540396 C-1.18150355,230.995714 0.142949185,217.156583 5.29359871,204.49525 C9.26695691,194.336738 15.0062521,184.914351 22.07,176.522537 C32.0769762,164.597328 44.8800193,156.05829 57.0944167,146.930352 C61.5092592,143.544182 66.9542315,142.366383 71.9577196,140.599686 C76.9612078,138.832988 81.9646959,136.771841 87.1153454,135.005143 C89.7642509,133.97457 92.5603177,133.238446 95.3563846,133.091221 C103.450262,132.796771 103.303101,132.796771 102.714455,140.894135 C102.567294,142.513608 101.978648,142.955283 100.507034,143.249732 C90.0585737,145.752554 80.934566,151.052647 72.3992039,157.530538 C63.7166804,164.155654 56.0642868,171.958569 49.2948618,180.644832 C43.8498894,187.858847 39.435047,195.661762 36.0503344,203.906351 C28.8394251,220.248304 27.9564566,237.031931 35.903173,253.373884 C43.8498894,269.715837 55.0341569,283.113294 71.369074,291.063433 C82.1118573,296.216301 93.4432862,300.044146 105.804845,299.455247 C108.895235,299.308022 111.54414,301.516394 114.928853,300.485821 C111.102656,297.541325 106.540652,296.363526 102.420133,294.302379 C95.3563846,290.474534 90.6472193,284.732767 86.0852155,278.4021 C80.3459203,270.599186 76.0782393,261.912922 73.4293338,252.63776 C71.0747512,244.687621 70.0446213,236.295807 70.6332669,227.903993 C71.5162354,217.009358 73.2821724,206.556397 77.8441762,196.397886 C85.3494084,179.172584 98.8882586,165.333452 115.811821,157.236088 C117.577758,156.35274 119.490857,155.76384 121.551116,155.027716 C123.611376,161.947282 124.935829,168.425173 121.109632,175.639189 C119.343695,178.583685 117.430597,181.528181 115.223176,184.178227 C111.396979,189.036646 109.631042,195.367312 105.804845,200.52018 C100.359873,208.028645 96.8279988,216.567684 95.503546,225.695621 C94.1790933,233.792985 94.9149004,242.184799 97.5638058,249.987714 C101.09568,260.587899 106.834975,269.568612 116.253306,276.046503 C124.052861,281.346596 133.029707,284.585542 142.448037,285.616116 C155.545403,286.941139 168.642769,285.616116 181.151489,281.935496 C196.456277,277.518751 210.583772,270.746411 222.651008,259.851775 C230.744886,252.784985 237.955796,244.687621 243.989414,235.854133 C252.230453,223.487249 251.494646,211.56204 243.989414,199.195157 C235.30689,185.356026 223.8283,173.578041 210.28945,164.450104 C195.131824,153.849918 178.796907,145.01643 163.786443,134.269019 C150.247592,124.552182 140.240616,112.185299 136.414419,95.9905708 C132.882545,81.2680906 135.531451,66.9872848 143.183844,53.5898279 C150.689077,40.4868205 161.579021,31.0644332 174.382064,23.5559683 C182.034458,18.8447746 190.128336,14.7224802 198.369375,11.1890849 C208.817835,7.06679049 219.70778,4.12229445 230.892048,2.65004643 C237.219989,1.17779841 243.547929,0.294449604 250.023032,0 C257.528264,0.147224802 264.739173,0.883348811 271.802921,2.50282163" id="Path"></path>
                <path d="M464.59558,207.881469 C467.666987,203.750326 468.837047,198.88148 469.860849,194.307715 C471.323424,187.963461 474.833604,182.651992 477.173724,176.75036 C479.952616,169.668401 483.316538,162.881525 486.68046,155.947107 C496.187197,136.029099 506.425221,116.701254 524.268634,102.684878 C525.584951,101.652093 526.901269,100.029144 528.948874,100.029144 C531.288993,100.029144 534.214143,99.4389807 533.044083,103.570123 C532.897826,103.865205 532.897826,104.160286 533.044083,104.455368 C538.016838,111.537326 532.166538,116.553713 528.948874,120.832397 C522.513544,129.389763 518.71085,139.274997 513.44558,148.422526 C511.544233,151.520883 509.9354,154.766781 508.472825,158.160219 C507.741538,160.22579 500.721179,173.504462 497.796029,180.586421 C494.724622,188.258542 491.214442,202.422459 488.728065,209.651958 C485.5104,218.947029 482.58525,228.537181 476.149921,236.356843 C472.200969,241.078149 467.959502,245.209291 461.0854,244.324046 C459.91534,244.176506 458.74528,244.176506 457.721478,244.324046 C447.775969,244.619128 443.241987,240.487986 441.779412,230.455211 C438.708005,210.094581 437.976717,189.438869 439.439292,168.783157 C440.609352,154.324158 442.218184,153.733995 446.020879,139.717619 C446.898424,136.471721 450.408604,134.40615 453.626268,135.438936 C454.503813,135.734017 455.381358,136.17664 456.112646,136.766803 C456.843933,137.356966 457.136448,138.389752 456.697675,139.274997 C456.258903,140.750405 455.966388,142.225813 455.966388,143.701221 C455.820131,145.029088 455.966388,147.094659 456.843933,147.684822 C461.67043,151.225801 458.599023,159.930709 460.207855,164.209392 C463.42552,172.766758 460.354113,168.783157 462.986747,176.75036 C466.35067,187.373297 462.401717,197.406072 464.59558,207.881469" id="Path"></path>
                <path d="M358.981354,127.61312 C375.564125,141.861839 314.809548,177.116404 320.386055,163.161472 C329.924817,139.070853 353.991848,123.353193 358.981354,127.61312 M476.234754,109.398262 C472.712749,104.991441 447.911967,104.844547 428.687693,114.980234 C412.838673,123.500087 407.702416,129.228954 406.968665,130.991682 C406.675165,131.579258 407.555666,127.466226 406.821915,125.262815 C406.528415,124.234557 404.180412,124.675239 402.85966,124.822133 C400.805157,125.115921 400.951908,124.087663 398.310404,125.556604 C397.429903,125.997286 394.348149,124.234557 394.054649,125.850392 C393.467648,130.257212 393.467648,143.036992 390.239144,154.054043 C384.809387,173.003371 366.172113,204.585585 347.97509,224.856959 C342.251833,231.173402 323.614559,251.004095 308.205789,242.337348 C304.683785,240.427725 304.390284,235.286435 303.803284,231.026508 C302.042281,216.777788 306.151287,207.376571 310.994043,194.15611 C311.874544,191.805805 312.755045,191.658911 315.103048,190.483759 C318.478302,188.867925 321.853557,187.105197 325.375561,185.489363 C334.914323,181.082542 343.866085,176.675722 351.937345,169.918597 C361.182607,162.280108 368.813617,156.698135 376.004376,143.183886 C382.167884,131.579258 382.461384,110.132732 364.704611,109.251368 C347.534839,108.370003 325.962562,123.059405 315.103048,136.132973 C301.748781,152.144421 301.895531,158.901546 294.998272,174.912993 C294.704772,175.647464 294.411272,176.23504 293.971021,176.822616 C291.769768,180.201178 287.660763,181.817012 284.285509,182.84527 C281.790756,183.579741 277.975251,185.342469 280.176503,187.252091 C283.405008,189.896183 281.644005,193.274746 284.872509,193.127852 C289.128265,192.980958 286.193261,198.709824 285.60626,200.913235 C282.231006,215.602636 281.057005,230.292038 285.45951,244.98144 C287.367263,252.326141 292.503519,258.201901 299.547528,261.139782 C309.673291,265.399708 326.109312,261.43357 335.354574,257.026749 C358.981354,245.569016 384.075636,206.054525 384.515887,200.766341 C382.754884,216.337106 379.819881,229.26378 378.499129,243.659394 C378.058878,249.241366 383.488635,251.738565 390.385894,252.913717 C393.320898,253.354399 398.603905,247.331744 401.098658,249.828942 C401.979159,250.710307 403.886911,248.65379 403.740161,247.18485 C403.446661,244.24697 402.85966,243.953182 402.125909,236.902269 C401.979159,231.614084 402.125909,226.3259 402.56616,221.037715 C403.00641,218.393623 405.647914,200.619447 405.207663,197.534672 C404.473912,192.68717 405.941414,192.099594 406.234914,185.342469 C406.968665,161.692532 418.121679,147.7376 423.111186,142.302522 C449.379469,114.83334 473.153,119.387055 474.473751,120.268419 C477.995756,122.618723 479.023007,115.420916 477.115255,113.658188 C475.647753,112.042354 476.528254,109.838944 476.234754,109.398262 M583.655891,140.686687 C583.949391,137.161231 583.655891,133.341986 583.949391,129.963424 C584.683142,122.618723 591.2869,116.155386 596.423157,111.16099 C598.77116,108.810686 600.091912,105.725911 602.733415,103.522501 C604.787918,101.906667 606.98917,100.878409 608.750173,101.906667 C610.657925,102.934925 610.657925,132.460622 604.200917,158.754652 C597.303658,187.252091 594.808905,196.065732 590.112899,211.930286 C588.792147,216.484 591.2869,216.190212 593.194653,215.161954 C599.06466,212.07718 616.821433,180.64186 622.69144,165.65867 C626.947196,154.935407 635.165206,135.692291 639.714462,121.443571 C641.915715,114.539552 644.116968,106.901063 648.959724,99.2625744 C650.133725,97.4998462 652.921979,91.9178735 669.0645,90.7427213 C671.999503,90.5958273 669.358,98.6749983 674.054006,96.618482 C675.521508,96.618482 673.907256,100.290832 669.6515,104.697653 C662.020491,112.483036 658.498486,126.437968 661.87374,136.867443 C665.102245,146.856236 678.603262,157.726393 686.234272,164.777306 C698.414537,175.941252 700.61579,190.189971 699.441788,205.320055 C698.708037,214.28059 693.13153,221.331503 686.234272,227.06037 C679.190263,232.495448 671.559253,237.049163 663.341242,240.574619 C655.269982,244.24697 646.611721,247.331744 638.39371,250.857201 C635.898957,251.885459 632.963954,251.885459 630.4692,250.710307 C627.387446,249.38826 624.012192,249.535154 620.930438,250.857201 C617.848684,252.032353 614.47343,252.032353 611.391676,250.857201 C614.62018,245.71591 619.609687,243.659394 624.452443,241.602877 C639.274212,234.992647 653.068729,226.032112 665.395745,215.308848 C668.770999,212.224074 671.559253,208.698618 673.760506,204.732479 C678.603262,196.35952 676.84226,187.105197 668.770999,177.557086 C662.020491,169.477915 653.215479,163.014578 647.785722,153.760255 C646.318221,151.116163 644.997469,148.178282 643.970218,145.387296 C641.035214,152.731997 638.833961,157.873287 636.045707,164.9242 C618.288935,218.246729 596.716657,235.580223 588.938897,230.73272 C586.884395,229.704462 586.297394,226.179006 582.92214,226.3259 C579.546885,226.472794 579.987136,228.52931 576.318381,231.614084 C572.649627,234.845753 568.247121,237.489845 552.251351,238.811891 C538.897084,240.133937 526.129817,232.348554 521.580561,219.568775 C516.884555,206.642101 514.976803,193.715428 517.471556,179.760496 C520.25981,164.042836 522.461063,154.200937 530.679073,139.364641 L532.880326,134.664033 C534.788078,129.375848 538.310083,124.822133 539.924335,119.387055 C541.391837,114.392658 545.500842,110.42652 549.756597,107.194851 C552.544851,105.285229 556.213606,104.991441 559.148609,106.460381 C561.496612,107.488639 561.643363,109.69205 561.790113,111.89546 C561.936863,113.070612 561.496612,114.245764 560.762861,114.980234 C555.479855,120.855995 552.1046,127.61312 551.66435,135.545397 C551.5176,138.336383 548.876096,139.658429 547.408594,143.477674 C547.115094,144.359038 546.381343,146.26866 546.087843,146.856236 C545.647592,147.590706 546.087843,148.912752 545.354092,150.381693 C543.006089,155.963665 538.897084,163.895942 536.549081,173.444053 C535.668579,177.263298 535.96208,182.404588 535.228329,186.223833 C533.027076,200.178765 533.907577,222.653549 550.783849,222.359761 C564.725117,222.506655 582.188389,154.788513 583.655891,140.686687" id="Shape"></path>
                <path d="M731.666476,178.837037 L710.275036,178.837037 L710.275036,165.637037 L768.751636,165.637037 L768.751636,178.837037 L747.360196,178.837037 L747.360196,237.037037 L731.666476,237.037037 L731.666476,178.837037 Z M808.016696,237.037037 L790.323776,237.037037 L767.233016,165.637037 L783.326576,165.637037 L799.220216,215.837037 L799.420136,215.837037 L815.513696,165.637037 L831.707216,165.637037 L808.016696,237.037037 Z" id="TV"></path>
            </g>
        </g>
    </g>
</svg>
