<svg width="72px" height="22px" viewBox="0 0 1535 400" version="1.1" xmlns="http://www.w3.org/2000/svg" xmlns:xlink="http://www.w3.org/1999/xlink">
    <g id="Page-1" stroke="none" stroke-width="1" fill="none" fill-rule="evenodd">
        <g id="Artboard" transform="translate(-1000.000000, 0.000000)" fill="#606164" fill-rule="nonzero">
            <g id="welt-logo" transform="translate(1000.000000, 0.000000)">
                <polygon id="Path" points="1326.34956 391.28563 1326.34956 95.1331378 1215.62287 95.1331378 1215.62287 8.43753666 1534.09091 8.43753666 1534.09091 95.1331378 1423.63695 95.1331378 1423.63695 391.28563"></polygon>
                <polygon id="Path" points="1010.26804 391.28563 1010.26804 8.43753666 1107.55425 8.43753666 1107.55425 304.575953 1268.34604 304.575953 1268.34604 391.28563"></polygon>
                <path d="M779.360704,0.140762463 C665.760117,0.140762463 589.430499,80.8733138 589.430499,201.030499 C589.430499,319.791789 667.787683,399.583578 784.407625,399.583578 C850.592375,399.583578 900.624047,381.950147 941.862757,344.092669 L943.0739,342.978299 L883.459824,277.682698 L882.242229,278.710264 C855.517889,301.230499 823.697361,313.124927 790.235777,313.124927 C739.138416,313.124927 706.205865,287.014663 695.009384,237.602933 L694.557771,235.402933 L959.710264,235.390616 C959.793548,234.890323 959.868622,234.524927 959.955425,233.868622 C961.116129,225.271554 961.911437,211.221114 961.911437,199.456305 C961.515543,80.2392962 888.151906,0.140762463 779.360704,0.140762463 Z M694.872141,162.778299 L695.338416,160.597067 C705.729032,112.265103 733.73607,87.7659824 778.585337,87.7659824 C820.902639,87.7659824 848.748974,112.943109 859.108504,160.58651 L859.582991,162.778299 L694.872141,162.778299 L694.872141,162.778299 Z" id="Shape"></path>
                <polygon id="Path" points="365.432845 391.28563 294.628739 149.120821 223.819941 391.28563 107.719648 391.28563 0.219941349 8.43753666 100.636364 8.43753666 170.209971 277.340176 243.278592 8.43753666 347.318475 8.43753666 420.393548 277.881525 489.972434 8.43753666 589.020528 8.43753666 481.531965 391.28563"></polygon>
            </g>
        </g>
    </g>
</svg>
