<svg
      xmlns="http://www.w3.org/2000/svg"
      width="85"
      height="56"
      viewBox="0 0 90 56"
    >
      <path
        fill="#343330"
        fillRule="evenodd"
        d="M72.728 32.514a6.637 6.637 0 00-.439-2.422 5.96 5.96 0 00-1.137-1.857 5.9 5.9 0 00-2.066-1.475 6.437 6.437 0 00-1.997-.492 7.176 7.176 0 00-1.875.09c-.671.13-1.31.352-1.905.689a5.83 5.83 0 00-1.9 1.704c-.712.995-1.074 2.115-1.154 3.327a7.02 7.02 0 00.043 1.366c.066.5.178.99.355 1.463.474 1.265 1.273 2.271 2.424 2.993.957.6 2.01.89 3.133.939a7.079 7.079 0 001.881-.182 6.04 6.04 0 002.59-1.34 5.9 5.9 0 001.6-2.3c.309-.79.456-1.612.447-2.503zm1.149-1.384c.102.574.14 1.154.116 1.736-.063 1.465-.47 2.823-1.312 4.036-.994 1.431-2.35 2.36-4.027 2.833a8.293 8.293 0 01-1.262.239c-.3.036-.6.011-.847.023-.162 0-.274-.003-.385 0-.418.016-.828-.044-1.235-.124a7.436 7.436 0 01-2.178-.785 7.125 7.125 0 01-2.744-2.665 7.367 7.367 0 01-.876-2.315 7.39 7.39 0 01-.132-1.027 7.912 7.912 0 01-.02-.662c.025-1.197.285-2.338.84-3.405a7.1 7.1 0 012.934-3.002 7.464 7.464 0 012.391-.822 8.029 8.029 0 011.746-.103c1.597.082 3.051.568 4.323 1.55a7.011 7.011 0 011.776 2.032c.447.766.738 1.591.892 2.461zm-54.773 1.998h2.12c-.33-1.215-.659-2.416-.994-3.645l-1.126 3.645zm4.082-.652l1.192 4.216c.012.04.024.08.014.131h-2.237l-.663-2.214H18.77l-.661 2.212h-2.1c-.022-.054.008-.1.024-.148l.948-2.863 1.372-4.146c.059-.178.147-.345.188-.528a1.21 1.21 0 00.017-.4c-.017-.168-.152-.281-.35-.31a2.88 2.88 0 00-.246-.023c-.076-.004-.154-.001-.238-.001-.027-.128-.01-.251-.013-.374-.002-.12 0-.24 0-.357.033-.039.075-.024.111-.024h3.25c.101 0 .2.008.301.026.288.05.485.207.58.48.065.185.117.375.17.564l1.064 3.76zm26.15-.559c.003 1.602.003 3.202.004 4.803v.104h-2.044c-.033-.041-.015-.096-.015-.145l-.001-4.14a2.63 2.63 0 00-.047-.587c-.047-.203-.151-.362-.476-.378a1.447 1.447 0 00-.927.263 3.873 3.873 0 00-.412.332v4.655h-2.04c-.034-.044-.016-.1-.016-.15-.002-1.784-.002-3.567-.002-5.351 0-.067 0-.135-.009-.2-.035-.223-.14-.386-.474-.417-.056-.005-.113 0-.176 0v-.735c.03-.033.072-.017.107-.017h1.842c.062 0 .126-.002.188.008.255.044.416.22.438.483.01.115.004.23.008.346.001.047-.011.095.009.141.048.005.068-.034.096-.057.308-.256.625-.5.979-.69a2.494 2.494 0 011.805-.248c.606.144.951.554 1.078 1.152.057.272.086.55.086.828zm-9.703 2.953v-1.367c-.18.018-.349.055-.517.09-.311.065-.613.16-.902.296a.692.692 0 00-.413.536c-.033.208-.045.42-.004.63.054.273.23.423.511.438.132.007.26-.01.386-.045.366-.103.669-.308.94-.578zm2.36 1.23a.914.914 0 00.292.028v.69c-.044.02-.083.013-.12.013h-1.828c-.077-.001-.156 0-.231-.016-.233-.05-.378-.23-.395-.488-.007-.1-.002-.2-.002-.309-.074.006-.104.06-.144.094a3.212 3.212 0 01-1.255.691 2.578 2.578 0 01-1.302.04c-.53-.114-.887-.435-1.038-.954a3.1 3.1 0 01-.001-1.775c.164-.552.54-.92 1.062-1.146.416-.183.85-.304 1.297-.386.397-.074.795-.148 1.195-.209.033-.004.065-.017.106-.028.007-.16.014-.319-.017-.473-.066-.324-.214-.446-.537-.496a2.654 2.654 0 00-.68.005c-.556.057-1.081.224-1.595.435-.027.01-.053.023-.084.014-.007-.006-.016-.011-.019-.02l-.443-1.21c.018-.046.06-.052.092-.07.564-.309 1.174-.473 1.805-.58a7.273 7.273 0 011.574-.075c.338.016.67.073.982.22.343.16.58.419.72.769.141.348.192.713.195 1.083.007.976.005 1.952.006 2.928v.65c-.001.072.006.143.019.214.035.199.158.314.347.361zm10.713-.644c-.01.016-.017.033-.034.063h3.041v1.305h-5.292c-.025-.05-.013-.099-.013-.145-.002-.38.002-.76-.002-1.14a.396.396 0 01.08-.251c.945-1.306 1.885-2.613 2.826-3.921.022-.03.056-.056.059-.113h-1.502c-.063 0-.126-.002-.188.005-.28.033-.462.133-.481.5-.003.047 0 .095 0 .15-.124.02-.244.008-.363.01-.116.003-.232 0-.341 0-.036-.025-.025-.055-.025-.084v-1.211c0-.098.012-.192.04-.284.086-.268.265-.346.524-.381.067-.008.135-.005.203-.005h4.206c.041 0 .086-.009.13.011.018.04.008.084.008.126.002.384-.002.77.003 1.154a.391.391 0 01-.077.239c-.935 1.323-1.868 2.648-2.802 3.972zm-25.828-7.759c.234.083.356.25.386.491.014.11.017.22.017.33v8.303h-2.057c-.024-.057-.013-.11-.013-.162l-.001-7.632c0-.063 0-.126-.004-.188a.423.423 0 00-.388-.414c-.105-.015-.211-.02-.335-.033-.004-.118-.002-.241-.002-.364v-.354c.029-.04.066-.027.097-.027h1.988c.107 0 .21.014.312.05zm4.121.593c.003.034.001.067.001.1v8.436h-2.05c-.017-.06-.01-.117-.01-.173v-7.63c0-.077-.005-.152-.016-.229-.028-.2-.18-.339-.388-.368-.105-.015-.21-.022-.326-.033v-.729c.02-.027.051-.017.078-.017h2.001a.85.85 0 01.16.01c.372.072.526.275.55.634zm3.72 2.403l-.001 5.984c0 .048.01.096-.015.154H32.68c-.036-.054-.02-.113-.02-.167l-.001-5.337c0-.1 0-.2-.02-.3-.042-.21-.197-.303-.376-.319-.081-.007-.164 0-.265 0-.008-.13-.003-.253-.004-.375v-.355c.037-.039.077-.023.114-.023.638-.002 1.276-.002 1.914-.001.067 0 .135-.002.2.014.333.076.47.312.495.595.005.043.002.087.002.13zm-.607-3.125c.434.128.683.466.671.925-.011.418-.26.76-.71.885a1.434 1.434 0 01-.24.051c-.086.009-.174.002-.26.002a1.418 1.418 0 01-.569-.077c-.382-.134-.596-.422-.608-.822-.003-.14 0-.278.046-.412a.817.817 0 01.53-.53c.377-.13.762-.134 1.14-.022zm33.367 1.171v7.56c0 .047.008.094-.011.147h-1.96c-.028-.05-.013-.108-.013-.163v-6.969c0-.105-.002-.21-.023-.315-.033-.165-.119-.25-.282-.288-.113-.027-.23-.012-.353-.025v-.829c.029-.028.064-.017.097-.017h1.653c.12 0 .24.002.36.026.369.073.485.3.523.6.011.09.01.182.01.273zm3 2.026v5.522c0 .052.013.106-.015.161h-1.912V29.77c.015-.024.04-.018.063-.018h1.073c.102-.001.202.013.3.039.268.068.444.283.471.573.012.133.02.268.02.402zm-7.251-1.012l1.16-.001c.008 0 .015.006.032.011v6.686h-1.898c-.031-.039-.018-.078-.018-.115v-5.697c0-.134-.002-.268.035-.4.062-.212.188-.364.405-.431a.965.965 0 01.284-.053zM18.28 17.711c.78 0 1.25.533 1.25 1.561v1.665c0 .981-.555 1.56-1.41 1.56-.348 0-.762-.167-1.034-.326v1.944h-.8v-6.292h.753v.664c.329-.496.752-.776 1.24-.776zm-.16.71c-.367 0-.762.281-1.034.748v2.291c.272.215.61.337.874.337.517 0 .77-.318.77-.973v-1.44c0-.7-.253-.962-.61-.962zm4.14-.71c1.147 0 1.655.645 1.655 1.702v1.383c0 1.057-.508 1.702-1.655 1.702s-1.654-.645-1.654-1.702v-1.383c0-1.057.507-1.702 1.654-1.702zm0 .664c-.536 0-.855.336-.855.972v1.515c0 .636.32.972.855.972.536 0 .856-.336.856-.972v-1.524c0-.636-.32-.963-.856-.963zm8.418-.552l-1.062 4.563H28.61l-.93-3.871-.94 3.87h-1.006l-1.053-4.562h.846l.743 3.862.893-3.862h1.034l.883 3.862.752-3.862h.846zm2.374-.112c1.052 0 1.616.589 1.616 1.674v.963h-2.415v.551c0 .636.291.898.958.898.395 0 .903-.084 1.222-.15l.02.692c-.414.075-.894.159-1.251.159-1.269 0-1.748-.542-1.748-1.646v-1.467c0-1.076.517-1.674 1.598-1.674zm0 .664c-.48 0-.8.308-.8.888v.449h1.617v-.421c0-.617-.329-.916-.817-.916zm4.66-.664c.084 0 .169.01.207.019v.897a1.811 1.811 0 00-.367-.028c-.404 0-.77.197-1.043.655v3.132h-.8v-4.563h.753v.683c.329-.505.761-.795 1.25-.795zm2.584 0c1.052 0 1.616.589 1.616 1.674v.963h-2.415v.551c0 .636.29.898.958.898.395 0 .903-.084 1.222-.15l.02.692c-.414.075-.894.159-1.251.159-1.27 0-1.748-.542-1.748-1.646v-1.467c0-1.076.517-1.674 1.598-1.674zm0 .664c-.48 0-.8.308-.8.888v.449h1.617v-.421c0-.617-.329-.916-.817-.916zM46.166 16v6.386h-.761v-.739c-.367.552-.799.85-1.288.85-.77 0-1.203-.532-1.203-1.56v-1.665c0-.972.46-1.561 1.325-1.561.405 0 .846.252 1.128.467V16h.8zm-1.748 2.422c-.432 0-.705.29-.705.963v1.449c0 .71.244.953.592.953.367 0 .762-.299 1.062-.841v-2.057c-.263-.271-.658-.467-.949-.467zM49.871 16v2.43c.33-.457.762-.719 1.232-.719.77 0 1.222.542 1.222 1.59v1.477c0 1.122-.508 1.72-1.655 1.72-1.118 0-1.598-.57-1.598-1.702V16h.8zm1.044 2.422c-.367 0-.771.29-1.044.766v1.702c0 .617.31.944.8.944.582 0 .855-.327.855-.963v-1.458c0-.748-.254-.991-.611-.991zm5.934-.599l-2.105 6.292h-.8l.603-1.73h-.301l-1.307-4.562h.874l.987 3.992 1.222-3.992h.827z"
      ></path>
    </svg>
